<?xml version='1.0' encoding='utf-8'?>
<svg xmlns="http://www.w3.org/2000/svg" width="960" height="790" viewBox="0 0 960 790"><path d="M 470 360 L 725 690 L 190 690 Z" fill="none" stroke="#184566" stroke-width="7" stroke-linecap="round" stroke-linejoin="round" stroke-dasharray="14 12" /><svg width="320" height="350" viewBox="-5 0 650 1024" x="325" y="0"><defs><clipPath id="body-m19-2-A"><rect x="55" y="0" width="530" height="1024" /></clipPath></defs><g clip-path="url(#body-m19-2-A)"><image href="../source-images/42a41212738fd216d1bfa1db74f354fee5ab5dc97791e6ce84ba76de137fab50.png" x="0" y="0" width="1536" height="1024" /></g><image href="../source-images/de37dd358e82ea4eae7cde1b74eef45eb75d1b25c1fc5521256526f48e3c4014.png" x="76.0" y="162.0" width="176.0" height="176.0" preserveAspectRatio="none" /></svg><text x="485" y="388" font-family="Arial" font-size="42" text-anchor="middle" fill="#102E47">A</text><svg width="320" height="350" viewBox="-5 0 650 1024" x="610" y="330"><defs><clipPath id="body-m19-2-B"><rect x="55" y="0" width="530" height="1024" /></clipPath></defs><g clip-path="url(#body-m19-2-B)"><image href="../source-images/549583cc61be384c9980fe6057fc9941f7cafd001a606995d1ca7cb657a9dfa6.png" x="0" y="0" width="1536" height="1024" /></g><image href="../source-images/de37dd358e82ea4eae7cde1b74eef45eb75d1b25c1fc5521256526f48e3c4014.png" x="82.0" y="180.0" width="176.0" height="176.0" preserveAspectRatio="none" /><image href="../source-images/bf481f76c86b2f54c5316b21756558492d032dd56159b530117e157672a56227.png" x="475.0" y="323.78" width="54.0" height="54.0" /></svg><text x="770" y="718" font-family="Arial" font-size="42" text-anchor="middle" fill="#102E47">B</text><svg width="320" height="350" viewBox="-5 0 650 1024" x="30" y="330"><defs><clipPath id="body-m19-2-C"><rect x="55" y="0" width="530" height="1024" /></clipPath></defs><g clip-path="url(#body-m19-2-C)"><image href="../source-images/a45797e2b54fe631a41edfbff1cb7c5d88da5466be3aa27b4d7b8459a5191bd5.png" x="0" y="0" width="1536" height="1024" /></g><image href="../source-images/de37dd358e82ea4eae7cde1b74eef45eb75d1b25c1fc5521256526f48e3c4014.png" x="83.0" y="170.0" width="176.0" height="176.0" preserveAspectRatio="none" /></svg><text x="190" y="718" font-family="Arial" font-size="42" text-anchor="middle" fill="#102E47">C</text></svg>