<?xml version='1.0' encoding='utf-8'?>
<svg xmlns="http://www.w3.org/2000/svg" width="960" height="632" viewBox="0 0 960 632"><g transform="translate(10.0,25) scale(0.53)"><g><defs><clipPath id="m21-2-A"><rect x="55" y="0" width="530" height="1024" /></clipPath></defs><g clip-path="url(#m21-2-A)"><image href="../source-images/42a41212738fd216d1bfa1db74f354fee5ab5dc97791e6ce84ba76de137fab50.png" x="0" y="0" width="1536" height="1024" /></g><g transform="rotate(0 164 250)"><image href="../source-images/de37dd358e82ea4eae7cde1b74eef45eb75d1b25c1fc5521256526f48e3c4014.png" x="76.0" y="162.0" width="176" height="176" /></g></g></g><text x="160.0" y="615.72" font-family="Arial" font-size="42" text-anchor="middle" fill="#102E47">A</text><g transform="translate(330.0,25) scale(0.53)"><g><defs><clipPath id="m21-2-C"><rect x="55" y="0" width="530" height="1024" /></clipPath></defs><g clip-path="url(#m21-2-C)"><image href="../source-images/a45797e2b54fe631a41edfbff1cb7c5d88da5466be3aa27b4d7b8459a5191bd5.png" x="0" y="0" width="1536" height="1024" /></g><g transform="rotate(0 171 258)"><image href="../source-images/de37dd358e82ea4eae7cde1b74eef45eb75d1b25c1fc5521256526f48e3c4014.png" x="83.0" y="170.0" width="176" height="176" /></g><image href="../source-images/bf481f76c86b2f54c5316b21756558492d032dd56159b530117e157672a56227.png" x="144" y="231" width="54" height="54" /></g></g><text x="480.0" y="615.72" font-family="Arial" font-size="42" text-anchor="middle" fill="#102E47">C</text><g transform="translate(650.0,25) scale(0.53)"><g><defs><clipPath id="m21-2-B"><rect x="55" y="0" width="530" height="1024" /></clipPath></defs><g clip-path="url(#m21-2-B)"><image href="../source-images/549583cc61be384c9980fe6057fc9941f7cafd001a606995d1ca7cb657a9dfa6.png" x="0" y="0" width="1536" height="1024" /></g><g transform="rotate(0 170 268)"><image href="../source-images/de37dd358e82ea4eae7cde1b74eef45eb75d1b25c1fc5521256526f48e3c4014.png" x="82.0" y="180.0" width="176" height="176" /></g></g></g><text x="800.0" y="615.72" font-family="Arial" font-size="42" text-anchor="middle" fill="#102E47">B</text></svg>